# xmcd CD database file
# Copyright (C) 1996 Ti Kan
#
# Track frame offsets:
#	150
#	18920
#	36428
#	59211
#	74417
#	92650
# Disc length: 1438 seconds
#
# Revision: 1
# Processed by: cddbd v1.4PL0 Copyright (c) Steve Scherf et al.
# Submitted via: CDCOPY 4.744
#
DISCID=53059c06
DTITLE=Any Colour You Like - Day By Day
DYEAR=1900
DGENRE=
TTITLE0=Day by day
TTITLE1=Nights in Paris
TTITLE2=Higher and higher
TTITLE3=King of dreams
TTITLE4=Angel
TTITLE5=Friends
EXTD=
EXTT0=
EXTT1=
EXTT2=
EXTT3=
EXTT4=
EXTT5=
PLAYORDER=
